<svg width="512" height="512" viewBox="0 0 512 512" fill="none" xmlns="http://www.w3.org/2000/svg">
<g clip-path="url(#clip0_899_2)">
<mask id="mask0_899_2" style="mask-type:luminance" maskUnits="userSpaceOnUse" x="0" y="0" width="512" height="512">
<path d="M512 0H0V512H512V0Z" fill="white"/>
</mask>
<g mask="url(#mask0_899_2)">
<path d="M174.351 302.165C139.052 312.135 100.105 308.551 67.219 292.306C45.776 281.714 25.938 264.346 20.264 241.112C14.59 217.878 28.391 189.409 52.038 185.828C60.8 184.501 70.382 186.868 76.511 193.268C82.64 199.668 84.42 210.311 79.517 217.693C73.009 227.49 57.646 227.809 48.095 220.945C38.544 214.081 33.806 202.343 31.128 190.891C20.723 146.402 35.491 97.7409 66.015 63.7439C96.539 29.7469 141.415 10.1209 186.969 6.6109C232.523 3.10091 278.535 14.9559 318.928 36.3079C342.065 48.5389 364.069 64.0389 389.569 69.9279C423.329 77.7249 460.84 66.4449 484.701 41.3219" stroke="black" stroke-miterlimit="10"/>
<path d="M439.399 54.2292C440.387 64.5895 420.753 89.4604 430.294 94.8497C440.9 100.841 512.441 47.5613 505.785 29.3111C499.13 11.0609 411.204 29.0053 409.751 38.6088C407.612 52.7414 438.384 43.588 439.399 54.2292Z" fill="#4BC9F1"/>
<path d="M503.414 40.1792C490.606 62.9244 439.24 99.2726 430.379 94.2704C420.84 88.8748 440.472 64.0076 439.49 53.6514C438.473 43.0068 407.703 52.1613 409.837 38.0295C410.142 36.0181 414.239 33.6487 420.592 31.3138C426.734 37.3643 447.847 32.6581 448.689 41.4461C449.679 51.8035 430.039 76.6774 439.579 82.0658C446.971 86.241 483.921 61.6511 503.414 40.1792Z" fill="#18ABC4"/>
<path d="M439.487 53.6476C440.475 64.0079 420.841 88.8788 430.382 94.2682C440.988 100.259 512.529 46.9798 505.874 28.7296C499.218 10.4794 411.292 28.4238 409.839 38.0272C407.7 52.1598 438.472 43.0065 439.487 53.6476Z" stroke="black" stroke-width="1.2" stroke-linecap="round" stroke-linejoin="round"/>
<path d="M449.635 49.1915C465.056 42.683 480.476 36.1752 495.897 29.6667" stroke="black" stroke-width="0.8" stroke-miterlimit="10"/>
<path d="M244.123 258.097L319.808 465.599L272.335 478.564L188.568 262.8L244.123 258.097Z" fill="#4BC9F1"/>
<path d="M237.241 282.939C237.019 286.705 238.064 290.534 240.166 293.666C242.268 296.798 245.417 299.215 248.986 300.436C251.993 301.465 255.552 301.574 258.128 299.714" stroke="black" stroke-width="1.5" stroke-linejoin="round"/>
<path d="M230.221 282.223L231.984 368.331L213.379 282.223H230.221Z" fill="#18ABC4"/>
<path d="M326.002 477.605C326.002 477.605 323.643 456.02 332.171 459.678C341.48 463.671 326.002 477.605 326.002 477.605Z" stroke="black" stroke-width="1.5" stroke-linecap="round" stroke-linejoin="round"/>
<path d="M326.002 477.605C326.002 477.605 341.233 462.129 343.791 471.049C346.583 480.786 326.002 477.605 326.002 477.605Z" stroke="black" stroke-width="1.5" stroke-linecap="round" stroke-linejoin="round"/>
<path d="M354.105 485.65L279.595 506L272.335 478.564L319.808 465.599L326.406 476.477L354.105 485.65Z" fill="black"/>
<path d="M326.391 476.739L324.154 480.657" stroke="white" stroke-width="2" stroke-linejoin="round"/>
<path d="M332.013 479L329.655 483.131" stroke="white" stroke-width="2" stroke-linejoin="round"/>
<path d="M212.076 260.873C212.066 263.916 244.608 366.32 226.047 397.139C205.565 431.148 71.5911 397.349 71.5911 397.349L72.9571 348.156L166.768 351.799L146.374 266.26L212.076 260.873Z" fill="#4BC9F1"/>
<path d="M182.469 278.84C182.019 285.397 181.035 292.072 177.975 297.888C174.915 303.704 169.452 308.58 162.94 309.468" stroke="black" stroke-width="1.5" stroke-linejoin="round"/>
<path d="M247.161 77.0891C247.764 83.3741 243.159 88.9581 236.874 89.5611C230.589 90.1641 225.004 85.5581 224.401 79.2731C223.798 72.9881 228.404 67.4041 234.689 66.8011C240.974 66.1981 246.558 70.8041 247.161 77.0891Z" fill="#FFB49F"/>
<path d="M242.713 63.3771C244.17 78.5561 233.045 92.0421 217.866 93.4991C202.687 94.9561 189.201 83.8321 187.744 68.6531C186.287 53.4741 197.411 39.9871 212.59 38.5301C227.769 37.0731 241.256 48.1981 242.713 63.3771Z" fill="black"/>
<path d="M377.039 151.402C376.795 152.648 376.166 153.822 375.187 154.729L346.071 180.87L321.504 157.961L330.899 132.453C331.005 129.654 333.394 127.463 336.201 127.597C337.588 127.658 338.808 128.274 339.671 129.205C340.679 130.287 341.214 131.809 340.967 133.401L340.374 137.445L353.231 122.891C354.736 121.195 357.327 121.034 359.021 122.53L359.378 122.855C360.947 124.234 361.217 126.571 360.017 128.272L356.327 133.552L363.073 127.321C364.641 125.881 367.044 125.876 368.62 127.314C368.703 127.392 368.786 127.47 368.857 127.541C370.38 129.187 370.318 131.781 368.64 133.334L362.097 139.426L367.087 136.575C368.868 135.561 371.212 134.924 372.465 136.546L372.628 136.763C374.061 138.627 373.633 141.325 371.687 142.65L365.839 147.653L366.074 147.555L371.418 145.516C373.422 144.753 375.682 145.672 376.583 147.626C377.15 148.834 377.283 150.156 377.039 151.402Z" fill="#FFCDB2"/>
<path d="M356.362 133.229C353.734 135.703 351.106 138.178 348.478 140.652" stroke="#231F20" stroke-linecap="round" stroke-linejoin="round"/>
<path d="M366.161 147.474C366.161 147.474 359.639 153.536 359.256 153.892" stroke="#231F20" stroke-linecap="round" stroke-linejoin="round"/>
<path d="M362.285 139.442C360.197 141.2 357.074 144.469 354.986 146.227" stroke="#231F20" stroke-linecap="round" stroke-linejoin="round"/>
<path d="M340.374 137.445C340.374 137.445 343.849 141.079 341.311 147.175C340.359 149.461 338.907 151.171 337.463 152.415" stroke="#231F20" stroke-linecap="round" stroke-linejoin="round"/>
<path d="M359.22 177.815C359.22 177.815 329.299 245.911 286.324 250.018C285.992 250.057 285.661 250.085 285.329 250.105C262.452 251.754 244.374 231.395 232.384 211.717C221.565 193.971 215.692 176.781 215.692 176.781L213.379 144.01C213.379 144.01 225.477 145.103 242.101 156.859C258.725 168.615 269.407 206.546 284.353 203.258C295.094 200.888 317.299 148.235 317.299 148.235L359.22 177.815Z" fill="#0061EB"/>
<path d="M286.324 250.018C285.992 250.057 285.661 250.085 285.329 250.105C262.452 251.754 244.374 231.395 232.384 211.717C234.657 189.981 237.076 166.83 237.076 166.83C237.076 166.83 254.608 235.999 286.324 250.018Z" fill="#003CD3"/>
<path d="M257.222 282.223L236.78 165.438C234.116 152.942 223.079 144.01 210.302 144.01H162.299C151.287 144.01 142.355 154.197 142.355 166.753V282.223H257.222Z" fill="#0061EB"/>
<path d="M175.096 172.498C175.096 172.498 163.804 207.003 142.355 230.458V195.441L175.096 172.498Z" fill="#003CD3"/>
<path d="M211.961 144.01L209.504 156.855L179.707 144.009C182.301 136.003 183.809 127.927 183.579 119.74L195.904 120.205L209.504 119.74L211.207 136.596C211.216 136.605 211.215 136.604 211.215 136.604L211.961 144.01Z" fill="#FFCDB2"/>
<path d="M211.207 141.224C210.768 141.057 196.765 130.892 194.264 123.329C193.852 122.074 194.509 121.047 195.904 120.205L209.504 119.74L211.207 141.224Z" fill="#FFB49F"/>
<path d="M209.501 156.855L179.706 144.01" stroke="black" stroke-width="1.5" stroke-linecap="round" stroke-linejoin="round"/>
<path d="M241.519 92.9623C243.366 112.202 229.265 129.296 210.025 131.143C190.785 132.99 173.691 118.89 171.844 99.6502C169.997 80.4103 184.097 63.3153 203.337 61.4683C222.577 59.6213 239.672 73.7223 241.519 92.9623Z" fill="#FFCDB2"/>
<path d="M174.189 99.4252C174.189 99.4252 214.091 92.8302 214.976 64.1622C214.986 63.8502 214.991 63.5352 214.991 63.2182C214.991 63.2182 208.743 46.3812 186.853 54.2222C164.963 62.0632 156.971 92.5672 174.189 99.4252Z" fill="black"/>
<path d="M184.719 95.9501C187.513 97.7792 247.161 77.0892 232.429 57.7522C224.241 47.0052 209.393 41.6322 191.868 55.4411" fill="black"/>
<path d="M184.83 97.1003C185.433 103.385 180.827 108.969 174.542 109.572C168.257 110.175 162.673 105.57 162.07 99.2853C161.467 93.0003 166.072 87.4153 172.357 86.8123C178.642 86.2093 184.227 90.8153 184.83 97.1003Z" fill="#FFCDB2"/>
<path d="M173.634 94.0762C174.145 94.8862 174.659 95.7022 175.009 96.5942C175.359 97.4862 175.538 98.4682 175.354 99.4082C175.015 101.146 173.321 102.515 171.551 102.482" stroke="black" stroke-width="1.5" stroke-linecap="round" stroke-linejoin="round"/>
<path d="M205.597 112.816C206.203 114.84 207.694 116.582 209.6 117.493C211.506 118.404 213.798 118.471 215.754 117.671" stroke="black" stroke-width="1.5" stroke-linecap="round" stroke-linejoin="round"/>
<path d="M58.3041 399.793C58.3041 399.793 79.6451 403.798 73.6701 410.898C67.1481 418.648 58.3041 399.793 58.3041 399.793Z" stroke="black" stroke-width="1.5" stroke-linecap="round" stroke-linejoin="round"/>
<path d="M58.3041 399.793C58.3041 399.793 68.6961 418.859 59.4171 418.719C49.2891 418.566 58.3041 399.793 58.3041 399.793Z" stroke="black" stroke-width="1.5" stroke-linecap="round" stroke-linejoin="round"/>
<path d="M42.452 424.353L44.595 347.144L72.957 348.156L71.591 397.349L59.267 400.507L42.452 424.353Z" fill="black"/>
<path d="M59.0201 400.417L55.9191 397.139" stroke="white" stroke-width="2" stroke-linejoin="round"/>
<path d="M55.225 405.141L51.957 401.686" stroke="white" stroke-width="2" stroke-linejoin="round"/>
<path d="M232.922 93.818C232.547 96.1 230.944 97.617 229.341 97.208C227.738 96.799 226.743 94.618 227.118 92.336C227.493 90.054 229.097 88.537 230.7 88.946C232.303 89.355 233.297 91.536 232.922 93.818Z" fill="black"/>
<path d="M214.794 95.9918C214.419 98.2738 212.815 99.7908 211.212 99.3818C209.609 98.9729 208.615 96.7908 208.99 94.5088C209.365 92.2268 210.968 90.7099 212.571 91.1188C214.174 91.5278 215.169 93.7099 214.794 95.9918Z" fill="black"/>
<path d="M283.836 160.663L341.923 240.58C353.953 257.13 350.294 280.294 333.744 292.324L222.958 372.849C206.415 384.874 183.245 381.209 171.215 364.659L113.129 284.742C101.103 268.199 104.768 245.03 121.312 233.005L232.098 152.48C238.149 148.081 245.076 145.786 252.026 145.446C259.969 145.054 267.927 147.223 274.615 151.747C278.097 154.091 281.226 157.073 283.836 160.663Z" fill="#FDE346"/>
<path d="M180.449 374.062C180.449 374.062 192.129 270.731 219.131 251.105C246.133 231.478 348.024 252.26 348.024 252.26" fill="#FDE346"/>
<path d="M180.449 374.062C180.449 374.062 192.129 270.731 219.131 251.105C246.133 231.478 348.024 252.26 348.024 252.26" stroke="black" stroke-width="1.5" stroke-miterlimit="10"/>
<path d="M274.641 151.301C274.641 151.301 269.514 263.653 242.515 283.278C233.051 290.157 213.597 290.96 192.312 289.112C152.839 285.681 107.067 273.103 107.067 273.103L274.641 151.301Z" fill="#FDE346"/>
<path d="M274.615 151.747C274.242 159.371 268.529 264.37 242.515 283.277C233.051 290.157 213.596 290.96 192.311 289.112C203.438 282.316 227.291 275.112 235.921 265.255C255.848 242.514 265.942 192.595 252.026 145.446C259.969 145.054 267.927 147.223 274.615 151.747Z" fill="#FFD400"/>
<path d="M283.836 160.663L341.923 240.58C353.953 257.13 350.294 280.294 333.744 292.324L222.958 372.849C206.415 384.874 183.245 381.209 171.215 364.659L113.129 284.742C101.103 268.199 104.768 245.03 121.312 233.005L232.098 152.48C238.149 148.081 245.076 145.786 252.026 145.446C259.969 145.054 267.927 147.223 274.615 151.747C278.097 154.091 281.226 157.073 283.836 160.663Z" stroke="black" stroke-width="1.5" stroke-miterlimit="10"/>
<path d="M274.641 151.301C274.641 151.301 269.518 263.651 242.516 283.278C215.514 302.904 107.067 273.103 107.067 273.103" stroke="black" stroke-width="1.5" stroke-miterlimit="10"/>
<path d="M207.383 256.59L236.359 255.185C239.226 254.424 242.178 256.148 242.909 259.031C243.277 260.452 243.038 261.865 242.367 263.029C241.584 264.385 240.221 265.394 238.537 265.642L234.269 266.291" fill="#FFCDB2"/>
<path d="M234.269 266.291L252.948 274.752C255.125 275.742 256.093 278.311 255.108 280.481L254.894 280.945C253.981 282.953 251.712 283.955 249.623 283.273L243.15 281.183L251.532 286.065C253.469 287.193 254.22 289.616 253.259 291.651C253.207 291.76 253.154 291.869 253.099 291.965C251.913 294.019 249.276 294.753 247.19 293.549L239.014 288.829L243.438 292.988C245.013 294.464 245.26 296.874 244.017 298.638L243.85 298.873C242.413 300.9 239.557 301.305 237.613 299.744L231.874 295.159L232.04 295.372L235.756 300.126C237.151 301.916 236.921 304.481 235.233 305.998C234.185 306.943 232.895 307.492 231.562 307.632C230.23 307.771 228.847 307.498 227.628 306.794L210.086 297.546L201.541 293.041L207.383 256.59" fill="#FFCDB2"/>
<path d="M210.086 297.546L201.541 293.041L207.383 256.59L210.086 297.546Z" fill="#FFB49F"/>
<path d="M250.196 281.259C249.212 280.98 248.727 279.673 249.106 278.33C249.485 276.987 250.591 276.128 251.575 276.407C252.558 276.687 253.052 277.998 252.664 279.336C252.285 280.679 251.179 281.539 250.196 281.259Z" stroke="#231F20" stroke-linecap="round" stroke-linejoin="round"/>
<path d="M248.214 291.943C247.288 291.508 247.022 290.14 247.614 288.876C248.206 287.613 249.437 286.945 250.362 287.38C251.288 287.815 251.561 289.189 250.962 290.446C250.37 291.71 249.139 292.378 248.214 291.943Z" stroke="#231F20" stroke-linecap="round" stroke-linejoin="round"/>
<path d="M239.18 298.29C238.255 297.855 237.987 296.485 238.579 295.222C239.172 293.959 240.402 293.291 241.328 293.725C242.253 294.16 242.527 295.535 241.928 296.793C241.336 298.057 240.106 298.725 239.18 298.29Z" stroke="#231F20" stroke-linecap="round" stroke-linejoin="round"/>
<path d="M230.329 305.571C229.508 304.962 229.517 303.567 230.347 302.446C231.177 301.325 232.515 300.912 233.337 301.522C234.158 302.132 234.155 303.534 233.319 304.648C232.489 305.769 231.15 306.181 230.329 305.571Z" stroke="#231F20" stroke-linecap="round" stroke-linejoin="round"/>
<path d="M243.484 281.122C240.172 279.238 236.858 277.354 233.546 275.47" stroke="#231F20" stroke-linecap="round" stroke-linejoin="round"/>
<path d="M232.15 295.431C232.15 295.431 224.008 290.731 223.531 290.455" stroke="#231F20" stroke-linecap="round" stroke-linejoin="round"/>
<path d="M239.053 289.027C236.631 287.466 232.362 285.328 229.941 283.767" stroke="#231F20" stroke-linecap="round" stroke-linejoin="round"/>
<path d="M218.421 248.731L200.754 300.74C200.754 300.74 118.38 292.044 97.609 263.134C76.4536 233.695 125.346 153.467 157.257 144.825C159.878 144.115 162.685 145.108 165.415 146.991C176.263 154.479 177.958 169.881 169.534 180.008C155.071 197.4 132.534 226.163 134.602 234.11C136.067 239.735 218.421 248.731 218.421 248.731Z" fill="#0061EB"/>
<path d="M424.488 331.442C401.674 330.047 384.302 310.413 385.697 287.599C386.077 281.39 387.813 275.583 390.593 270.444L387.796 254.977C387.36 252.565 389.412 250.578 391.811 251.09L406.438 254.199C413.216 250.31 421.16 248.284 429.542 248.797C452.367 250.193 469.739 269.828 468.343 292.653C466.948 315.466 447.313 332.838 424.488 331.442Z" fill="#5FD670"/>
<path d="M424.488 331.442C401.674 330.047 384.302 310.413 385.697 287.599C386.077 281.39 387.813 275.583 390.593 270.444L387.796 254.977C387.36 252.565 389.412 250.578 391.811 251.09L406.438 254.199C413.216 250.31 421.16 248.284 429.542 248.797C452.367 250.193 469.739 269.828 468.343 292.653C466.948 315.466 447.313 332.838 424.488 331.442Z" stroke="#231F20" stroke-width="1.5" stroke-linecap="round" stroke-linejoin="round"/>
<path d="M414.465 299.829L424.032 304.188L437.105 275.498" stroke="white" stroke-width="4" stroke-linecap="round" stroke-linejoin="round"/>
<path d="M355.37 100.665C372.521 98.965 389.329 93.874 404.541 85.771" stroke="black" stroke-miterlimit="10"/>
<path d="M340.109 36.2778C351.507 43.7108 364.216 49.1288 377.471 52.2048" stroke="black" stroke-miterlimit="10"/>
<path d="M336.306 69.7197C347.725 74.4927 360.093 76.9817 372.47 76.9987" stroke="black" stroke-miterlimit="10"/>
</g>
</g>
<defs>
<clipPath id="clip0_899_2">
<rect width="512" height="512" fill="white"/>
</clipPath>
</defs>
</svg>
