<svg xmlns="http://www.w3.org/2000/svg" xmlns:xlink="http://www.w3.org/1999/xlink" viewBox="0 0 1000 1000" width="1000" height="1000" preserveAspectRatio="xMidYMid meet" style="width: 100%; height: 100%; transform: translate3d(0px, 0px, 0px); content-visibility: visible;"><defs><clipPath id="__lottie_element_16312"><rect width="1000" height="1000" x="0" y="0"></rect></clipPath><clipPath id="__lottie_element_16316"><path fill="#ffffff" clip-rule="nonzero" d=" M1230,126 C1230,126 -234,126 -234,126 C-234,126 -234,972 -234,972 C-234,972 1230,972 1230,972 C1230,972 1230,126 1230,126" fill-opacity="1"></path></clipPath><clipPath id="__lottie_element_16319"><path fill="#ffffff" clip-rule="nonzero" d=" M1230,126 C1230,126 -234,126 -234,126 C-234,126 -234,972 -234,972 C-234,972 1230,972 1230,972 C1230,972 1230,126 1230,126" fill-opacity="1"></path></clipPath><clipPath id="__lottie_element_16323"><path fill="#ffffff" clip-rule="nonzero" d=" M1232,-180 C1232,-180 -174,-180 -174,-180 C-174,-180 -174,798 -174,798 C-174,798 1232,798 1232,798 C1232,798 1232,-180 1232,-180" fill-opacity="1"></path></clipPath><clipPath id="__lottie_element_16326"><path fill="#ffffff" clip-rule="nonzero" d=" M1232,-180 C1232,-180 -174,-180 -174,-180 C-174,-180 -174,798 -174,798 C-174,798 1232,798 1232,798 C1232,798 1232,-180 1232,-180" fill-opacity="1"></path></clipPath></defs><g clip-path="url(#__lottie_element_16312)"><g clip-path="url(#__lottie_element_16316)" transform="matrix(1,0,0,1,0,0)" opacity="1" style="display: block;"><g opacity="1" transform="matrix(1,0,0,1,500,543.8619995117188)"><path fill="rgb(213,158,57)" fill-opacity="1" d=" M277.92999267578125,-71.98999786376953 C277.92999267578125,-71.98999786376953 277.92999267578125,255.58999633789062 277.92999267578125,255.58999633789062 C277.92999267578125,255.58999633789062 -277.92999267578125,255.58999633789062 -277.92999267578125,255.58999633789062 C-277.92999267578125,255.58999633789062 -277.92999267578125,-71.98999786376953 -277.92999267578125,-71.98999786376953 C-277.92999267578125,-71.98999786376953 -277.468994140625,-72.27999877929688 -277.468994140625,-72.27999877929688 C-277.468994140625,-72.27999877929688 -265.989013671875,-79.61000061035156 -265.989013671875,-79.61000061035156 C-265.989013671875,-79.61000061035156 0,-255.58999633789062 0,-255.58999633789062 C0,-255.58999633789062 265.9909973144531,-79.61000061035156 265.9909973144531,-79.61000061035156 C265.9909973144531,-79.61000061035156 277.4700012207031,-72.27999877929688 277.4700012207031,-72.27999877929688 C277.4700012207031,-72.27999877929688 277.92999267578125,-71.98999786376953 277.92999267578125,-71.98999786376953z"></path></g></g><g clip-path="url(#__lottie_element_16323)" transform="matrix(1,0,0,1,0,0)" opacity="1" style="display: block;"><g opacity="1" transform="matrix(1,0,0,1,499.9989929199219,469.4859924316406)"><path fill="rgb(233,247,255)" fill-opacity="1" d=" M213.35299682617188,268.9410095214844 C213.35299682617188,268.9410095214844 -213.35299682617188,268.9410095214844 -213.35299682617188,268.9410095214844 C-213.35299682617188,268.9410095214844 -213.35299682617188,-268.9410095214844 -213.35299682617188,-268.9410095214844 C-213.35299682617188,-268.9410095214844 135.58799743652344,-268.9410095214844 135.58799743652344,-268.9410095214844 C135.58799743652344,-268.9410095214844 173.70700073242188,-228.14199829101562 173.70700073242188,-228.14199829101562 C173.70700073242188,-228.14199829101562 213.35299682617188,-185.70599365234375 213.35299682617188,-185.70599365234375 C213.35299682617188,-185.70599365234375 213.35299682617188,268.9410095214844 213.35299682617188,268.9410095214844z"></path></g></g><g clip-path="url(#__lottie_element_16326)" transform="matrix(1,0,0,1,0,0)" opacity="1" style="display: block;"><g opacity="1" transform="matrix(1,0,0,1,674.469970703125,242.16200256347656)"><path fill="rgb(131,182,204)" fill-opacity="1" d=" M-38.88199996948242,-41.61800003051758 C-38.88199996948242,-41.61800003051758 38.882999420166016,41.61800003051758 38.882999420166016,41.61800003051758 C38.882999420166016,41.61800003051758 -38.88199996948242,41.61800003051758 -38.88199996948242,41.61800003051758 C-38.88199996948242,41.61800003051758 -38.88199996948242,-41.61800003051758 -38.88199996948242,-41.61800003051758z"></path></g></g><g transform="matrix(1,0,0,1,0,0)" opacity="1" style="display: block;"><g opacity="1" transform="matrix(1,0,0,1,505.70599365234375,534.780029296875)"><path fill="rgb(131,182,204)" fill-opacity="1" d=" M168,6.353000164031982 C168,6.353000164031982 -168,6.353000164031982 -168,6.353000164031982 C-168,6.353000164031982 -168,-6.353000164031982 -168,-6.353000164031982 C-168,-6.353000164031982 168,-6.353000164031982 168,-6.353000164031982 C168,-6.353000164031982 168,6.353000164031982 168,6.353000164031982z"></path></g></g><g transform="matrix(1,0,0,1,0,0)" opacity="1" style="display: block;"><g opacity="1" transform="matrix(1,0,0,1,505.70599365234375,479.72100830078125)"><path fill="rgb(131,182,204)" fill-opacity="1" d=" M168,6.353000164031982 C168,6.353000164031982 -168,6.353000164031982 -168,6.353000164031982 C-168,6.353000164031982 -168,-6.353000164031982 -168,-6.353000164031982 C-168,-6.353000164031982 168,-6.353000164031982 168,-6.353000164031982 C168,-6.353000164031982 168,6.353000164031982 168,6.353000164031982z"></path></g></g><g transform="matrix(1,0,0,1,0,0)" opacity="1" style="display: block;"><g opacity="1" transform="matrix(1,0,0,1,505.70599365234375,424.6619873046875)"><path fill="rgb(131,182,204)" fill-opacity="1" d=" M168,6.353000164031982 C168,6.353000164031982 -168,6.353000164031982 -168,6.353000164031982 C-168,6.353000164031982 -168,-6.353000164031982 -168,-6.353000164031982 C-168,-6.353000164031982 168,-6.353000164031982 168,-6.353000164031982 C168,-6.353000164031982 168,6.353000164031982 168,6.353000164031982z"></path></g></g><g transform="matrix(1,0,0,1,0,0)" opacity="1" style="display: block;"><g opacity="1" transform="matrix(1,0,0,1,505.70599365234375,369.60400390625)"><path fill="rgb(131,182,204)" fill-opacity="1" d=" M168,6.353000164031982 C168,6.353000164031982 -168,6.353000164031982 -168,6.353000164031982 C-168,6.353000164031982 -168,-6.353000164031982 -168,-6.353000164031982 C-168,-6.353000164031982 168,-6.353000164031982 168,-6.353000164031982 C168,-6.353000164031982 168,6.353000164031982 168,6.353000164031982z"></path></g></g><g transform="matrix(1,0,0,1,0,0)" opacity="1" style="display: block;"><g opacity="1" transform="matrix(1,0,0,1,505.70599365234375,314.54400634765625)"><path fill="rgb(131,182,204)" fill-opacity="1" d=" M168,6.353000164031982 C168,6.353000164031982 -168,6.353000164031982 -168,6.353000164031982 C-168,6.353000164031982 -168,-6.353000164031982 -168,-6.353000164031982 C-168,-6.353000164031982 168,-6.353000164031982 168,-6.353000164031982 C168,-6.353000164031982 168,6.353000164031982 168,6.353000164031982z"></path></g></g><g clip-path="url(#__lottie_element_16319)" transform="matrix(1,0,0,1,0,0)" opacity="1" style="display: block;"><g opacity="1" transform="matrix(1,0,0,1,697.6090087890625,635.6619873046875)"><path fill="rgb(248,205,117)" fill-opacity="1" d=" M80.3219985961914,-163.79299926757812 C80.3219985961914,-163.79299926757812 -80.3219985961914,0 -80.3219985961914,0 C-80.3219985961914,0 80.3219985961914,163.79299926757812 80.3219985961914,163.79299926757812 C80.3219985961914,163.79299926757812 80.3219985961914,-163.79299926757812 80.3219985961914,-163.79299926757812z"></path></g><g opacity="1" transform="matrix(1,0,0,1,302.3909912109375,635.6619873046875)"><path fill="rgb(248,205,117)" fill-opacity="1" d=" M-80.3219985961914,-163.79299926757812 C-80.3219985961914,-163.79299926757812 80.3219985961914,0 80.3219985961914,0 C80.3219985961914,0 -80.3219985961914,163.79299926757812 -80.3219985961914,163.79299926757812 C-80.3219985961914,163.79299926757812 -80.3219985961914,-163.79299926757812 -80.3219985961914,-163.79299926757812z"></path></g><g opacity="1" transform="matrix(1,0,0,1,499.9989929199219,717.5590209960938)"><path fill="rgb(236,183,73)" fill-opacity="1" d=" M-117.28700256347656,-81.89600372314453 C-117.28700256347656,-81.89600372314453 117.28800201416016,-81.89600372314453 117.28800201416016,-81.89600372314453 C117.28800201416016,-81.89600372314453 277.9309997558594,81.89600372314453 277.9309997558594,81.89600372314453 C277.9309997558594,81.89600372314453 -277.9309997558594,81.89600372314453 -277.9309997558594,81.89600372314453 C-277.9309997558594,81.89600372314453 -117.28700256347656,-81.89600372314453 -117.28700256347656,-81.89600372314453z"></path></g><g opacity="0.2" transform="matrix(1,0,0,1,500,549.5969848632812)"><path fill="rgb(0,0,0)" fill-opacity="1" d=" M277.4700012207031,-78.01499938964844 C277.4700012207031,-78.01499938964844 117.29000091552734,85.34500122070312 117.29000091552734,85.34500122070312 C117.29000091552734,85.34500122070312 -117.29000091552734,85.34500122070312 -117.29000091552734,85.34500122070312 C-117.29000091552734,85.34500122070312 -277.4700012207031,-78.01499938964844 -277.4700012207031,-78.01499938964844 C-277.4700012207031,-78.01499938964844 -265.989013671875,-85.34500122070312 -265.989013671875,-85.34500122070312 C-265.989013671875,-85.34500122070312 -117.29000091552734,66.98500061035156 -117.29000091552734,66.98500061035156 C-117.29000091552734,66.98500061035156 117.29000091552734,66.98500061035156 117.29000091552734,66.98500061035156 C117.29000091552734,66.98500061035156 265.9909973144531,-85.34500122070312 265.9909973144531,-85.34500122070312 C265.9909973144531,-85.34500122070312 277.4700012207031,-78.01499938964844 277.4700012207031,-78.01499938964844z"></path></g></g></g></svg>